<svg xmlns="http://www.w3.org/2000/svg" version="1.0" width="656.000000" height="546.000000" preserveAspectRatio="xMidYMid meet" style=""><rect id="backgroundrect" width="100%" height="100%" x="0" y="0" fill="none" stroke="none"/>


<g class="currentLayer" style=""><title>Layer 1</title><g transform="translate(0,546) scale(0.10000000149011612,-0.10000000149011612) " fill="#0000ff" stroke="none" id="svg_1" class="selected" fill-opacity="1">
<path d="M42 5415 c7 -31 813 -2205 818 -2205 3 0 23 33 44 73 21 39 76 128 121 197 231 353 534 672 878 924 43 32 77 63 74 69 -2 7 -80 225 -173 484 l-169 473 -798 0 c-695 0 -798 -2 -795 -15z" id="svg_2" fill="#0000ff" fill-opacity="1"/>
<path d="M4869 5278 c-30 -83 -55 -155 -57 -158 -1 -4 35 -12 80 -19 252 -37 517 -108 743 -198 161 -64 414 -190 422 -210 3 -8 -40 -244 -96 -525 -56 -280 -101 -511 -99 -513 2 -2 614 1640 656 1763 3 9 -160 12 -796 12 l-800 0 -53 -152z" id="svg_3" fill="#0000ff" fill-opacity="1"/>
<path d="M3851 2436 c-310 -867 -567 -1576 -570 -1576 -3 0 -63 159 -132 353 -432 1206 -675 1877 -679 1877 -9 0 -115 -179 -163 -275 -132 -267 -236 -608 -289 -950 -26 -170 -35 -477 -18 -625 34 -311 149 -577 333 -775 225 -242 513 -364 934 -396 312 -23 701 24 1043 128 125 38 300 101 313 112 4 4 270 716 591 1582 l584 1574 -31 28 c-69 61 -270 186 -422 263 -283 143 -527 213 -870 249 l-60 6 -564 -1575z" id="svg_4" fill="#0000ff" fill-opacity="1"/>
</g></g></svg>